# xmcd CD database file
#
# Track frame offsets:
#	150
#	22913
#	46007
#	78423
#	95474
#	108949
#	128257
#	143633
#	159197
#
# Disc length: 2177 seconds
#
# Revision: 0
# Processed by: cddbd v1.5.1PL2 Copyright (c) Steve Scherf et al.
# Submitted via: CDex 1.51
#
DISCID=56087f09
DTITLE=Bill Stewart and the ATL - Drum Crazy
DYEAR=2004
DGENRE=Jazz
TTITLE0=Fuzzy Wuzzy
TTITLE1=Bemsha Swing
TTITLE2=Big Sky King
TTITLE3=A Night in Tunisia
TTITLE4=Drum Crazy
TTITLE5=Movin' Wes
TTITLE6=Uno
TTITLE7=Last Call
TTITLE8=What Rick Said
EXTD=YEAR: 2004
EXTT0=
EXTT1=
EXTT2=
EXTT3=
EXTT4=
EXTT5=
EXTT6=
EXTT7=
EXTT8=
PLAYORDER=
